<svg width="12" height="12" viewBox="0 0 12 12" fill="none" xmlns="http://www.w3.org/2000/svg">
<path d="M11.25 0C11.6484 0 12 0.351562 12 0.75C12 1.17188 11.6484 1.5 11.25 1.5V10.5C11.6484 10.5 12 10.8516 12 11.25C12 11.6719 11.6484 12 11.25 12H7.125V10.5H4.875V12H0.75C0.328125 12 0 11.6719 0 11.25C0 10.8516 0.328125 10.5 0.75 10.5V1.5C0.328125 1.5 0 1.17188 0 0.75C0 0.351562 0.328125 0 0.75 0H11.25ZM2.625 2.25C2.41406 2.25 2.25 2.4375 2.25 2.625V3.375C2.25 3.58594 2.41406 3.75 2.625 3.75H3.375C3.5625 3.75 3.75 3.58594 3.75 3.375V2.625C3.75 2.4375 3.5625 2.25 3.375 2.25H2.625ZM5.25 3.375C5.25 3.58594 5.41406 3.75 5.625 3.75H6.375C6.5625 3.75 6.75 3.58594 6.75 3.375V2.625C6.75 2.4375 6.5625 2.25 6.375 2.25H5.625C5.41406 2.25 5.25 2.4375 5.25 2.625V3.375ZM8.625 2.25C8.41406 2.25 8.25 2.4375 8.25 2.625V3.375C8.25 3.58594 8.41406 3.75 8.625 3.75H9.375C9.5625 3.75 9.75 3.58594 9.75 3.375V2.625C9.75 2.4375 9.5625 2.25 9.375 2.25H8.625ZM2.25 5.625C2.25 5.83594 2.41406 6 2.625 6H3.375C3.5625 6 3.75 5.83594 3.75 5.625V4.875C3.75 4.6875 3.5625 4.5 3.375 4.5H2.625C2.41406 4.5 2.25 4.6875 2.25 4.875V5.625ZM5.625 4.5C5.41406 4.5 5.25 4.6875 5.25 4.875V5.625C5.25 5.83594 5.41406 6 5.625 6H6.375C6.5625 6 6.75 5.83594 6.75 5.625V4.875C6.75 4.6875 6.5625 4.5 6.375 4.5H5.625ZM8.25 5.625C8.25 5.83594 8.41406 6 8.625 6H9.375C9.5625 6 9.75 5.83594 9.75 5.625V4.875C9.75 4.6875 9.5625 4.5 9.375 4.5H8.625C8.41406 4.5 8.25 4.6875 8.25 4.875V5.625ZM6 6.75C4.94531 6.75 4.05469 7.47656 3.79688 8.46094C3.72656 8.76562 3.98438 9 4.3125 9H7.6875C7.99219 9 8.25 8.76562 8.17969 8.46094C7.92188 7.47656 7.03125 6.75 6 6.75Z" fill="#D6D8E1"/>
</svg>
